HIERARCHY
ROOT Hips
{
  OFFSET -331.093 83.8371 -317.828
  CHANNELS 6 Xposition Yposition Zposition Zrotation Xrotation Yrotation
  JOINT LeftUpLeg
  {
    OFFSET 8.64259 1.95398 -2.38835
    CHANNELS 3 Zrotation Xrotation Yrotation
    JOINT LeftLeg
    {
      OFFSET 43.7702 0 0
      CHANNELS 3 Zrotation Xrotation Yrotation
      JOINT LeftFoot
      {
        OFFSET 40.6238 0 0
        CHANNELS 3 Zrotation Xrotation Yrotation
        JOINT LeftToeBase
        {
          OFFSET 12.7242 0 0
          CHANNELS 3 Zrotation Xrotation Yrotation
          End Site
          {
            OFFSET 0 0 0
          }
        }
      }
    }
  }
  JOINT RightUpLeg
  {
    OFFSET -8.2249 1.95398 -2.59336
    CHANNELS 3 Zrotation Xrotation Yrotation
    JOINT RightLeg
    {
      OFFSET 43.5653 0 0
      CHANNELS 3 Zrotation Xrotation Yrotation
      JOINT RightFoot
      {
        OFFSET 40.6238 0 0
        CHANNELS 3 Zrotation Xrotation Yrotation
        JOINT RightToeBase
        {
          OFFSET 12.7242 0 0
          CHANNELS 3 Zrotation Xrotation Yrotation
          End Site
          {
            OFFSET 0 0 0
          }
        }
      }
    }
  }
  JOINT Spine
  {
    OFFSET 0.165834 0.87714 6.61349
    CHANNELS 3 Zrotation Xrotation Yrotation
    JOINT Spine1
    {
      OFFSET 7.38963 1.71661e-005 0
      CHANNELS 3 Zrotation Xrotation Yrotation
      JOINT Spine2
      {
        OFFSET 11.9445 1.14441e-005 0
        CHANNELS 3 Zrotation Xrotation Yrotation
        JOINT Spine3
        {
          OFFSET 14.7254 4.19617e-005 0
          CHANNELS 3 Zrotation Xrotation Yrotation
          JOINT Spine4
          {
            OFFSET 10.9679 0 0
            CHANNELS 3 Zrotation Xrotation Yrotation
            JOINT RightShoulder
            {
              OFFSET 2.46616 -1.6653 3.69651
              CHANNELS 3 Zrotation Xrotation Yrotation
              JOINT RightArm
              {
                OFFSET 13.0012 0 0
                CHANNELS 3 Zrotation Xrotation Yrotation
                JOINT RightForeArm
                {
                  OFFSET 28.7848 1.62311e-005 0
                  CHANNELS 3 Zrotation Xrotation Yrotation
                  JOINT RightHand
                  {
                    OFFSET 26.5688 1.62095e-005 0
                    CHANNELS 3 Zrotation Xrotation Yrotation
                    End Site
                    {
                      OFFSET 0 0 0
                    }
                  }
                }
              }
            }
            JOINT LeftShoulder
            {
              OFFSET 2.38034 -1.29275 -3.7523
              CHANNELS 3 Zrotation Xrotation Yrotation
              JOINT LeftArm
              {
                OFFSET 16.3182 6.07031e-005 0
                CHANNELS 3 Zrotation Xrotation Yrotation
                JOINT LeftForeArm
                {
                  OFFSET 27.0901 0 0
                  CHANNELS 3 Zrotation Xrotation Yrotation
                  JOINT LeftHand
                  {
                    OFFSET 24.5451 1.51738e-005 0
                    CHANNELS 3 Zrotation Xrotation Yrotation
                    End Site
                    {
                      OFFSET 0 0 0
                    }
                  }
                }
              }
            }
            JOINT Neck
            {
              OFFSET 5.0226 -0.0266342 0
              CHANNELS 3 Zrotation Xrotation Yrotation
              JOINT Head
              {
                OFFSET 6.69364 2.86102e-005 0
                CHANNELS 3 Zrotation Xrotation Yrotation
                End Site
                {
                  OFFSET 0 0 0
                }
              }
            }
          }
        }
      }
    }
  }
}
MOTION
Frames:	6
Frame Time:	0.0416667
295.718 89.3461 -288.435 -65.4877 -50.3524 -69.098 -174.353 45.15 87.3441 -67.2103 24.7394 -3.23575 34.8897 -20.3425 -11.9953 72.7661 49.2059 14.1733 -171.692 75.6212 81.9603 -70.1051 75.751 6.19403 20.0367 -0.351518 3.20104 1.52162 15.4091 -93.5762 0.597555 5.81822 -88.7428 15.215 1.80916 2.25585 3.5435 1.90664 2.17406 -18.9801 1.04781 2.695 1.03254 1.04782 2.69501 139.176 -63.0418 -33.4922 19.0125 -44.2053 36.6952 -77.5946 -11.0749 -86.9298 -89.5998 3.35758 -10.3265 -77.511 -53.8163 97.9751 -32.1679 23.2272 34.8458 25.3048 -7.48539 -90.5293 31.5707 -16.8852 -56.0066 42.7804 0.0836878 -23.2073 -50.4124 2.52732 22.6253 
291.681 90.9802 -282.936 -64.3704 -54.3899 -68.011 -175.704 35.9298 86.6408 -61.7557 17.1995 -0.314191 34.0438 -19.3055 -16.746 92.5255 49.8916 -5.52454 -177.949 69.551 84.7291 -75.4412 74.2116 2.30565 19.3688 3.42487 8.83637 -9.29751 23.8528 -83.5945 -0.245011 6.12816 -88.9274 14.6156 0.0449832 2.14781 2.94301 0.139457 2.14375 -19.5794 -0.602511 2.06211 0.433315 -0.602491 2.06212 124.946 -69.3373 -53.4222 17.0647 -48.7163 39.3521 -100.92 -20.181 -114.733 -89.7423 -32.164 28.2125 -83.3349 -55.6877 89.7344 -30.3166 22.8186 28.2661 18.9644 -8.62896 -93.2642 33.2844 2.45247 0.62199 29.4096 1.94051 -11.6276 -32.8419 3.35314 11.6511 
285.173 91.9568 -273.683 -67.4895 -54.9586 -68.5263 -175.159 20.1681 88.1936 -52.9329 13.1181 0.627331 41.8288 -15.912 -18.1438 97.632 45.6488 -14.2075 174.107 60.1432 94.3263 -75.861 39.3247 1.06236 31.1009 2.41714 3.63495 -2.79689 5.24755 -3.99173 -0.576886 6.47928 -89.3306 13.9171 -0.816862 1.45091 2.24559 -0.752228 1.48545 -20.2872 -1.21513 1.13838 -0.274539 -1.21514 1.13838 103.607 -64.9298 -79.6721 30.3823 -48.5366 50.7338 -66.4948 -27.6967 -99.7246 -101.434 -27.2013 18.2816 -87.0639 -53.0702 84.0754 -30.2137 23.1888 22.3902 15.9218 -13.2428 -101.507 32.673 3.47277 6.85982 15.235 1.3175 -0.690366 -17.466 1.74038 -1.96674 
278.523 92.834 -263.915 -68.8697 -56.5653 -68.8234 -174.432 1.29061 92.9399 -37.1445 20.7213 0.674523 51.2815 -9.25927 -11.2951 50.5467 34.5403 28.234 170.794 55.3464 97.3595 -64.1486 6.38355 1.91411 56.8575 1.50169 0.964555 38.5322 -1.67523 -6.02949 -0.954877 6.79429 -89.5532 13.2943 -1.67916 1.10437 1.62392 -1.62892 1.1772 -20.9186 -1.93341 0.548532 -0.905973 -1.93342 0.548528 96.3493 -57.696 -89.8095 39.7197 -36.076 60.1907 -16.925 -5.95039 -76.2981 -69.8828 0.0939482 -5.25295 -88.235 -48.7156 81.5789 -30.7517 23.3111 17.4536 16.225 -17.6028 -110.47 28.9491 2.90265 6.28093 7.27791 0.895111 -3.98681 -9.27005 1.6282 1.00377 
271.524 93.7169 -254.079 -72.9417 -54.3429 -74.4114 -174.641 -12.4018 90.1477 -18.7825 23.8809 0.183566 46.3444 -9.47289 -8.31243 18.2121 -2.32247 47.0876 174.822 52.2804 95.6089 -46.7115 -0.898562 1.56744 57.0268 2.07023 1.35055 35.7346 -1.73831 -8.94347 -0.896329 7.13702 -89.4117 12.6083 -1.49984 1.3506 0.937407 -1.43899 1.4153 -21.6021 -1.83642 0.837339 -1.58946 -1.83641 0.837338 94.5969 -50.6997 -93.2554 46.029 -31.9778 61.0671 -12.3466 -0.339682 -77.3693 -33.0088 -0.762306 -2.49814 -88.41 -44.4913 80.4516 -31.6926 23.2462 14.1164 14.0425 -19.352 -116.893 27.7177 2.04495 3.56291 2.59441 1.95953 -7.78198 -1.9032 3.19356 6.03033 
264.06 94.1196 -245.273 -70.7259 -53.915 -72.0766 -174.52 -9.54499 92.0844 -26.8256 29.8588 0.928315 41.3841 -12.3514 -6.0887 17.6363 -5.28864 32.5922 175.353 50.2178 97.7069 -35.1005 -0.640232 2.46518 53.6346 2.97648 2.11866 39.7786 -1.84142 -7.56043 -1.05765 7.15814 -89.6852 12.5655 -1.95103 0.856073 0.895673 -1.91146 0.941124 -21.6509 -2.11807 0.229898 -1.63825 -2.11807 0.229897 93.2555 -44.4585 -96.461 48.9982 -28.6326 56.9501 -13.0805 0.420227 -77.3688 -19.618 -0.281572 -3.58272 -89.5305 -42.4034 78.1753 -31.6531 20.36 11.9947 14.5258 -19.0181 -117.101 25.5333 1.72312 2.92941 1.54051 3.27414 -5.56341 1.73091 4.2315 5.02005 
